<?xml version="1.0" standalone="no"?><!DOCTYPE svg PUBLIC "-//W3C//DTD SVG 1.1//EN" "http://www.w3.org/Graphics/SVG/1.1/DTD/svg11.dtd"><svg t="1605860100610" class="icon" viewBox="0 0 1024 1024" version="1.1" xmlns="http://www.w3.org/2000/svg" p-id="3992" xmlns:xlink="http://www.w3.org/1999/xlink" width="200" height="200"><defs><style type="text/css"></style></defs><path d="M512 512m-512 0a512 512 0 1 0 1024 0 512 512 0 1 0-1024 0Z" fill="#C7232C" p-id="3993"></path><path d="M810.078 539.286a274.276 274.276 0 0 0 23.668-111.085c0-100.089-68.254-203.533-182.503-203.533h-8.804c-39.923 62.236-43.123 141.172-8.35 206.425 34.767 65.252 102.072 106.622 175.989 108.193z" fill="#FFFFFF" opacity=".4" p-id="3994"></path><path d="M549.122 249.386a76.113 76.113 0 0 1-70.366 0 219.804 219.804 0 0 0-103.167-24.891c-116.717 0-179.601 105.537-179.601 204.404 0 135.265 100.613 257.966 299.036 364.734a42.219 42.219 0 0 0 39.762 0c142.57-76.681 234.932-161.648 275.293-254.35-111.185-2.294-200.118-93.108-200.093-204.318a203.377 203.377 0 0 1 32.193-110.036 214.509 214.509 0 0 0-93.057 24.457z m66.673 240.203a22.265 22.265 0 0 1 20.428 10.682 22.271 22.271 0 0 1 0 23.062 22.247 22.247 0 0 1-20.428 10.67h-79.162v79.161a22.242 22.242 0 0 1-10.685 20.432 22.257 22.257 0 0 1-23.044 0 22.235 22.235 0 0 1-10.687-20.432V534h-79.163c-11.729-0.734-20.852-10.459-20.852-22.212 0-11.742 9.124-21.464 20.852-22.199h79.163v-79.162a22.231 22.231 0 0 1 10.687-20.43 22.204 22.204 0 0 1 23.044 0 22.24 22.24 0 0 1 10.685 20.43v79.162h79.162z" fill="#FFFFFF" p-id="3995"></path></svg>