<?xml version="1.0" standalone="no"?><!DOCTYPE svg PUBLIC "-//W3C//DTD SVG 1.1//EN" "http://www.w3.org/Graphics/SVG/1.1/DTD/svg11.dtd"><svg t="1606203702712" class="icon" viewBox="0 0 1024 1024" version="1.1" xmlns="http://www.w3.org/2000/svg" p-id="3097" xmlns:xlink="http://www.w3.org/1999/xlink" width="200" height="200"><defs><style type="text/css"></style></defs><path d="M512 873.472c-5.12 0-9.728-2.56-12.8-6.656-4.608-7.168-2.56-16.384 4.096-21.504l314.368-209.408c7.168-4.608 16.384-2.56 21.504 4.096 4.608 7.168 2.56 16.384-4.096 21.504L520.704 870.912c-2.56 1.536-5.632 2.56-8.704 2.56z" fill="#EF9D32" p-id="3098"></path><path d="M512 873.472c-3.072 0-6.144-1.024-8.704-2.56L189.44 661.504c-7.168-4.608-8.704-14.336-4.096-21.504 4.608-7.168 14.336-8.704 21.504-4.096l314.368 209.408c7.168 4.608 8.704 14.336 4.096 21.504-3.584 4.096-8.192 6.656-13.312 6.656z" fill="#EF9D32" p-id="3099"></path><path d="M512 579.584c-3.072 0-6.144-1.024-8.704-2.56L189.44 367.616c-7.168-4.608-8.704-14.336-4.096-21.504 4.608-7.168 14.336-8.704 21.504-4.096l314.368 209.408c7.168 4.608 8.704 14.336 4.096 21.504-3.584 4.608-8.192 6.656-13.312 6.656z m-157.184 115.2c-5.12 0-9.728-1.536-14.336-4.096L26.624 480.768c-11.776-7.68-14.848-23.552-7.168-35.328 7.68-11.776 23.552-14.848 35.328-7.168L369.152 647.68c11.776 7.68 14.848 23.552 7.168 35.328-5.12 7.68-13.312 11.776-21.504 11.776z m628.736-419.328c-5.12 0-9.728-1.536-14.336-4.096L655.36 61.952c-11.776-7.68-14.848-23.552-7.168-35.328 7.68-11.776 23.552-14.848 35.328-7.168l314.368 209.408c11.776 7.68 14.848 23.552 7.168 35.328-5.12 7.68-13.312 11.264-21.504 11.264z" fill="#344154" p-id="3100"></path><path d="M197.632 370.176c-5.12 0-9.728-2.56-12.8-6.656-4.608-7.168-2.56-16.384 4.096-21.504l314.368-209.408c7.168-4.608 16.384-2.56 21.504 4.096 4.608 7.168 2.56 16.384-4.096 21.504L206.336 367.616c-2.56 1.536-5.632 2.56-8.704 2.56z m-157.184-94.72c-8.192 0-16.384-4.096-21.504-11.264-7.68-11.776-4.608-27.648 7.168-35.328l314.88-209.408c11.776-7.68 27.648-4.608 35.328 7.168s4.608 27.648-7.168 35.328L54.784 271.36c-4.096 2.56-9.216 4.096-14.336 4.096z m628.736 419.328c-8.192 0-16.384-4.096-21.504-11.264-7.68-11.776-4.608-27.648 7.168-35.328l314.368-209.408c11.776-7.68 27.648-4.608 35.328 7.168s4.608 27.648-7.168 35.328L683.008 690.688c-3.584 2.56-8.704 4.096-13.824 4.096z" fill="#344154" p-id="3101"></path><path d="M826.368 370.176c-3.072 0-6.144-1.024-8.704-2.56L503.808 158.208c-7.168-4.608-8.704-14.336-4.096-21.504 4.608-7.168 14.336-9.216 21.504-4.096l314.368 209.408c7.168 4.608 8.704 14.336 4.096 21.504-3.584 4.096-8.192 6.656-13.312 6.656z" fill="#344154" p-id="3102"></path><path d="M512 579.584c-5.12 0-9.728-2.56-12.8-6.656-4.608-7.168-2.56-16.384 4.096-21.504l314.368-209.408c7.168-4.608 16.384-2.56 21.504 4.096 4.608 7.168 2.56 16.384-4.096 21.504L520.704 577.024c-2.56 2.048-5.632 2.56-8.704 2.56z" fill="#344154" p-id="3103"></path><path d="M826.368 380.416c-8.192 0-16.384-4.096-21.504-11.264-7.68-11.776-4.608-27.648 7.168-35.328l157.184-104.96c11.776-7.68 27.648-4.608 35.328 7.168s4.608 27.648-7.168 35.328L840.192 376.32c-3.584 2.56-8.704 4.096-13.824 4.096zM512 171.008c-8.192 0-16.384-4.096-21.504-11.264-7.68-11.776-4.608-27.648 7.168-35.328L655.36 19.456c11.776-7.68 27.648-4.608 35.328 7.168s4.608 27.648-7.168 35.328l-157.184 104.96c-4.096 2.56-9.216 4.096-14.336 4.096zM40.448 485.376c-8.192 0-16.384-4.096-21.504-11.264-7.68-11.776-4.608-27.648 7.168-35.328l157.184-104.96c11.776-7.68 27.648-4.608 35.328 7.168s4.608 27.648-7.168 35.328L54.784 480.768c-4.096 3.072-9.216 4.608-14.336 4.608z m457.216 57.856l28.16 42.496-157.184 104.96-28.16-42.496 157.184-104.96z" fill="#344154" p-id="3104"></path><path d="M526.336 543.232l157.184 104.96-28.16 42.496-157.184-104.96 28.16-42.496z m457.216-57.856c-5.12 0-9.728-1.536-14.336-4.096L812.032 376.32c-11.776-7.68-14.848-23.552-7.168-35.328 7.68-11.776 23.552-14.848 35.328-7.168l157.184 104.96c11.776 7.68 14.848 23.552 7.168 35.328-4.608 7.168-12.8 11.264-20.992 11.264zM512 171.008c-5.12 0-9.728-1.536-14.336-4.096L340.992 61.952c-11.776-7.68-14.848-23.552-7.168-35.328 7.68-11.776 23.552-14.848 35.328-7.168l157.184 104.96c11.776 7.68 14.848 23.552 7.168 35.328-5.12 7.168-13.312 11.264-21.504 11.264zM197.632 380.416c-5.12 0-9.728-1.536-14.336-4.096L26.624 271.36c-11.776-7.68-14.848-23.552-7.168-35.328 7.68-11.776 23.552-14.848 35.328-7.168l157.184 104.96c11.776 7.68 14.848 23.552 7.168 35.328-5.12 7.168-13.312 11.264-21.504 11.264zM512 1009.152c-5.12 0-9.728-1.536-14.336-4.096L183.296 795.648c-11.776-7.68-14.848-23.552-7.168-35.328 7.68-11.776 23.552-14.848 35.328-7.168L525.824 962.56c11.776 7.68 14.848 23.552 7.168 35.328-4.608 7.168-12.8 11.264-20.992 11.264z" fill="#344154" p-id="3105"></path><path d="M512 1009.152c-8.192 0-16.384-4.096-21.504-11.264-7.68-11.776-4.608-27.648 7.168-35.328l314.368-209.408c11.776-7.68 27.648-4.608 35.328 7.168s4.608 27.648-7.168 35.328l-314.368 209.408c-3.584 2.56-8.704 4.096-13.824 4.096z" fill="#344154" p-id="3106"></path><path d="M512 998.912c-8.704 0-15.36-6.656-15.36-15.36V564.224c0-8.704 6.656-15.36 15.36-15.36s15.36 6.656 15.36 15.36v419.328c0 8.192-6.656 15.36-15.36 15.36z m314.368-199.168c-14.336 0-25.6-11.264-25.6-25.6V564.736c0-14.336 11.264-25.6 25.6-25.6s25.6 11.264 25.6 25.6v209.408c0 13.824-11.264 25.6-25.6 25.6z m-628.736 0c-14.336 0-25.6-11.264-25.6-25.6V564.736c0-14.336 11.264-25.6 25.6-25.6s25.6 11.264 25.6 25.6v209.408c0 13.824-11.264 25.6-25.6 25.6z" fill="#344154" p-id="3107"></path><path d="M509.952 311.296s-58.368-94.208-98.816-16.384c0 0-27.136 68.608 29.696 126.976 0 0 66.56 58.88 70.144 57.856 0 0 48.64-29.184 68.608-57.856 0 0 66.56-68.608 28.16-136.704-0.512 0-45.056-61.952-97.792 26.112z" p-id="3108"></path></svg>